<svg width="56.000000" height="56.000000" viewBox="0 0 56 56" fill="none" xmlns="http://www.w3.org/2000/svg" xmlns:xlink="http://www.w3.org/1999/xlink">
	<desc>
			Created with Pixso.
	</desc>
	<defs>
		<clipPath id="clip46_1438">
			<rect id="Category-SmartWatch" width="56.000000" height="56.000000" fill="white" fill-opacity="0"/>
		</clipPath>
	</defs>
	<g clip-path="url(#clip46_1438)">
		<path id="Vector" d="M35 14C38.86 14 42 17.13 42 21L42 35C42 38.86 38.86 42 35 42L21 42C17.13 42 14 38.86 14 35L14 21C14 17.13 17.13 14 21 14L35 14Z" stroke="#000000" stroke-opacity="1.000000" stroke-width="2.000000" stroke-linejoin="round"/>
		<path id="Vector" d="M21 42L21 49L35 49L35 42" stroke="#000000" stroke-opacity="1.000000" stroke-width="2.000000" stroke-linejoin="round" stroke-linecap="round"/>
		<path id="Vector" d="M21 14L21 7L35 7L35 14" stroke="#000000" stroke-opacity="1.000000" stroke-width="2.000000" stroke-linejoin="round" stroke-linecap="round"/>
		<path id="Line 11" d="M24 22L24 35" stroke="#000000" stroke-opacity="1.000000" stroke-width="2.000000" stroke-linecap="round"/>
		<path id="Line 10" d="M28 27L28 35" stroke="#000000" stroke-opacity="1.000000" stroke-width="2.000000" stroke-linecap="round"/>
		<path id="Line 9" d="M32 25L32 35" stroke="#000000" stroke-opacity="1.000000" stroke-width="2.000000" stroke-linecap="round"/>
	</g>
</svg>
