<svg width="56.000000" height="56.000000" viewBox="0 0 56 56" fill="none" xmlns="http://www.w3.org/2000/svg" xmlns:xlink="http://www.w3.org/1999/xlink">
	<desc>
			Created with Pixso.
	</desc>
	<defs>
		<clipPath id="clip46_1464">
			<rect id="Category-Headphone" width="56.000000" height="56.000000" fill="white" fill-opacity="0"/>
		</clipPath>
	</defs>
	<rect id="Category-Headphone" width="56.000000" height="56.000000" fill="#FFFFFF" fill-opacity="0"/>
	<g clip-path="url(#clip46_1464)">
		<path id="Vector" d="M16.33 30.33C18.91 30.33 21 32.42 21 35L21 42C21 44.57 18.91 46.66 16.33 46.66L14 46.66C11.42 46.66 9.33 44.57 9.33 42L9.33 35C9.33 32.42 11.42 30.33 14 30.33L16.33 30.33Z" stroke="#000000" stroke-opacity="1.000000" stroke-width="2.000000" stroke-linejoin="round"/>
		<path id="Vector" d="M42 30.33C44.57 30.33 46.66 32.42 46.66 35L46.66 42C46.66 44.57 44.57 46.66 42 46.66L39.66 46.66C37.08 46.66 35 44.57 35 42L35 35C35 32.42 37.08 30.33 39.66 30.33L42 30.33Z" stroke="#000000" stroke-opacity="1.000000" stroke-width="2.000000" stroke-linejoin="round"/>
		<path id="Vector" d="M9.33 35L9.33 28C9.33 23.04 11.3 18.3 14.8 14.8C18.3 11.3 23.04 9.33 28 9.33C32.95 9.33 37.69 11.3 41.19 14.8C44.7 18.3 46.66 23.04 46.66 28L46.66 35" stroke="#000000" stroke-opacity="1.000000" stroke-width="2.000000" stroke-linejoin="round" stroke-linecap="round"/>
	</g>
</svg>
